<?xml version="1.0" ?>
<!-- Uploaded to: SVG Repo, www.svgrepo.com, Generator: SVG Repo Mixer Tools -->
<svg fill="#000000" width="800px" height="800px" viewBox="0 0 64 64" xmlns="http://www.w3.org/2000/svg">
<g id="cat">
<path d="M2.3384,19.8184a1,1,0,0,0,1.414,0l.7669-.767.7668.767A1,1,0,1,0,6.7,18.4043l-.767-.7671L6.7,16.87a1,1,0,0,0-1.4141-1.414l-.7668.7669-.7669-.7669a1,1,0,1,0-1.414,1.414l.7669.7671-.7669.7671A1,1,0,0,0,2.3384,19.8184Z"/>
<path d="M55,55a3,3,0,1,0,3,3A3.0033,3.0033,0,0,0,55,55Zm0,4a1,1,0,1,1,1-1A1.0013,1.0013,0,0,1,55,59Z"/>
<circle cx="12" cy="55" r="1"/>
<path d="M20,22a9,9,0,1,0,9,9A9.01,9.01,0,0,0,20,22Zm0,16a6.9805,6.9805,0,0,1-6.591-9.3349,33.6639,33.6639,0,0,1,13.182,0A6.9805,6.9805,0,0,1,20,38Z"/>
<path d="M32,40H30a3,3,0,0,0,0,6h2a3,3,0,0,0,0-6Z"/>
<circle cx="20" cy="31" r="1"/>
<path d="M51,31a9,9,0,1,0-9,9A9.01,9.01,0,0,0,51,31Zm-9,7a6.9805,6.9805,0,0,1-6.591-9.3349,33.6639,33.6639,0,0,1,13.182,0A6.9805,6.9805,0,0,1,42,38Z"/>
<circle cx="42" cy="31" r="1"/>
<path d="M59.1,44.0049l-5.6364-.5637c.2241-.5943.4224-1.2007.5995-1.8163l5.0613-.6327a1,1,0,0,0-.248-1.9844l-4.3136.5392A23.9678,23.9678,0,0,0,46.726,16.8727c-.4273-2.9024-1.3733-8.1465-2.894-10.4274a.9991.9991,0,0,0-1.1484-.394c-.32.1068-2.9287,1.1212-4.9767,5.9159a24.245,24.245,0,0,0-13.4138,0c-2.048-4.7947-4.6566-5.8091-4.9767-5.9159a.9986.9986,0,0,0-1.1484.394c-1.521,2.2812-2.4671,7.5265-2.8943,10.4288l-.0144.0082A23.9735,23.9735,0,0,0,7.4376,39.547L3.124,39.0078a1,1,0,1,0-.248,1.9844l5.0613.6327c.1771.6156.3754,1.222.5995,1.8163L2.9,44.0049a1,1,0,0,0,.1992,1.99l6.2587-.6258q.4991,1.0377,1.0935,2.0181l-1.8029.6761a1,1,0,1,0,.7022,1.873l2.2419-.8407a23.9658,23.9658,0,0,0,38.814,0l2.2419.8407a1,1,0,1,0,.7022-1.873l-1.8029-.6761q.5928-.98,1.0935-2.0181l6.2587.6258c.0342.0034.0674.0049.1006.0049A1,1,0,0,0,59.1,44.0049Zm-9.4632,2.6656-4.2853-1.607a1,1,0,0,0-.7022,1.873l3.8094,1.4285a21.9662,21.9662,0,0,1-34.9166,0l3.8094-1.4285a1,1,0,0,0-.7022-1.873l-4.2853,1.607q-.4641-.7385-.87-1.5148L13.1,44.9951a1,1,0,0,0-.1992-1.99l-2.2955.23q-.2669-.6585-.4914-1.3375l8.7625,1.0953A.9845.9845,0,0,0,19.0015,43a1,1,0,0,0,.1225-1.9922L9.5359,39.8093A21.9458,21.9458,0,0,1,15.25,19.6508a.993.993,0,0,0,1.7436-.54c.2436-2.1895,1.1069-7.9229,2.3886-10.7271.8975.6841,2.4649,2.32,3.669,5.9331a.9977.9977,0,0,0,1.2651.6323.9866.9866,0,0,0,.6533-1.0952,22.2491,22.2491,0,0,1,12.0606,0,.9866.9866,0,0,0,.6533,1.0952.9981.9981,0,0,0,1.2651-.6323c1.2061-3.6191,2.7769-5.2544,3.6685-5.9351,1.2817,2.8038,2.145,8.5391,2.3891,10.7291a1,1,0,0,0,.9922.89.981.981,0,0,0,.7516-.3495,21.9468,21.9468,0,0,1,5.714,20.1588L42.876,41.0078A1,1,0,0,0,42.9985,43a.9845.9845,0,0,0,.1255-.0078l8.7625-1.0953q-.2247.6788-.4914,1.3375l-2.2955-.23a1,1,0,1,0-.1992,1.99l1.6057.1606Q50.1005,45.9317,49.6364,46.6705Z"/>
</g>
</svg>