<?xml version="1.0" encoding="utf-8"?>
<!-- Generator: Adobe Illustrator 28.2.0, SVG Export Plug-In . SVG Version: 6.00 Build 0)  -->
<svg version="1.1" id="Layer_1" xmlns="http://www.w3.org/2000/svg" xmlns:xlink="http://www.w3.org/1999/xlink" x="0px" y="0px"
	 viewBox="0 0 300 300" style="enable-background:new 0 0 300 300;" xml:space="preserve">
<style type="text/css">
	.st0{fill:#AE1C59;}
	.st1{fill:#FFFFFF;}
</style>
<g>
	<rect y="0" class="st0" width="300" height="300"/>
	<path class="st1" d="M170.8,183.1c14.5-9.1,39.2-24.5,51.9-33.5c14.5-10.4,25-19,18.5-30.3c-5.6-9.7-17.5-7.6-37.8-1.2
		c-18.7,5.9-43.4,14.7-58.7,20.2c-1.8,0.7-3.1-1.8-1.5-2.9c18.3-12.4,39.3-27.4,50.3-37.1c7.1-6.2,7.9-13.9,4.2-18.5
		c-3.2-3.9-7.5-8-27.4-1.5c-14.4,4.7-32.7,12.5-49.2,19.1c-1.7,0.7-3.1-1.6-1.7-2.8c4-3.3,11.7-9.2,15.8-13.6
		c6.7-7.1,6.8-13.9,3.4-18.5c-1.8-2.4-5.7-6.3-16.8-5.4c-9.1,0.7-19.8,2.6-34.1,6.6c-10.4,2.9-9,19.2,5.9,16.5
		c3.8-0.7,9.2-1.8,13.1-2.6c1.7-0.4,2.7,1.8,1.4,2.9c-9.9,7.8-21.6,17.2-27,22.1c-7,6.3-9.9,12.9-5.2,19.1
		c4.8,6.4,14.4,4.4,25.9,1.1c7.1-2,18-5.7,25.9-8.5c1.8-0.6,3.1,1.9,1.4,2.9c-14.5,9.1-39.2,24.5-51.9,33.5
		c-14.5,10.4-25,19-18.5,30.3c5.6,9.7,17.5,7.6,37.8,1.2c18.7-5.9,43.4-14.7,58.7-20.2c1.8-0.7,3.1,1.8,1.5,2.9
		c-18.3,12.4-39.3,27.4-50.3,37.1c-7.1,6.2-7.9,13.9-4.2,18.5c3.2,3.9,7.5,8,27.4,1.5c14.4-4.7,32.7-12.5,49.2-19.1
		c1.7-0.7,3.1,1.6,1.7,2.8c-4,3.3-11.7,9.2-15.8,13.6c-6.7,7.1-6.8,13.9-3.4,18.5c1.8,2.4,5.7,6.3,16.8,5.4
		c9.1-0.7,19.8-2.6,34.1-6.6c10.4-2.9,9-19.2-5.9-16.5c-3.8,0.7-9.2,1.8-13.1,2.6c-1.7,0.4-2.7-1.8-1.4-2.9
		c9.9-7.8,21.6-17.2,27-22.1c7-6.3,9.9-12.9,5.2-19.1c-4.8-6.4-14.4-4.4-25.9-1.1c-7.1,2-18,5.7-25.9,8.5
		C170.4,186.7,169.2,184.2,170.8,183.1z"/>
</g>
</svg>
